<svg xmlns="http://www.w3.org/2000/svg" version="1.1" xmlns:xlink="http://www.w3.org/1999/xlink" width="200" height="200"><svg xmlns="http://www.w3.org/2000/svg" version="1.1" xmlns:xlink="http://www.w3.org/1999/xlink" viewBox="0 0 200 200"><rect width="200" height="200" fill="url('#gradient')"></rect><defs><linearGradient id="SvgjsLinearGradient1006" gradientTransform="rotate(324 0.5 0.5)"><stop offset="0%" stop-color="#e6ede9"></stop><stop offset="100%" stop-color="#fafafa"></stop></linearGradient></defs><g><g fill="#fd9827" transform="matrix(2.0781669394435354,0,0,2.0781669394435354,4.767803479341346,111.15057529262162)" stroke="#f4c825" stroke-width="0.9"><path d="M8.87 0L6.36-5.02L4.50-5.02L4.50 0L1.07 0L1.07-14.22L6.67-14.22Q9.20-14.22 10.63-13.10Q12.05-11.97 12.05-9.92L12.05-9.92Q12.05-8.44 11.45-7.46Q10.85-6.48 9.57-5.88L9.57-5.88L12.54-0.15L12.54 0L8.87 0ZM4.50-11.57L4.50-7.67L6.67-7.67Q7.65-7.67 8.14-8.18Q8.63-8.69 8.63-9.61Q8.63-10.53 8.13-11.05Q7.64-11.57 6.67-11.57L6.67-11.57L4.50-11.57ZM23.21 0L19.92 0Q19.75-0.32 19.61-0.95L19.61-0.95Q18.70 0.20 17.07 0.20L17.07 0.20Q15.58 0.20 14.53-0.71Q13.49-1.61 13.49-2.98L13.49-2.98Q13.49-4.70 14.76-5.58Q16.03-6.46 18.45-6.46L18.45-6.46L19.46-6.46L19.46-7.01Q19.46-8.47 18.20-8.47L18.20-8.47Q17.03-8.47 17.03-7.31L17.03-7.31L13.74-7.31Q13.74-8.85 15.04-9.80Q16.35-10.76 18.37-10.76Q20.39-10.76 21.56-9.78Q22.73-8.79 22.76-7.07L22.76-7.07L22.76-2.39Q22.78-0.94 23.21-0.17L23.21-0.17L23.21 0ZM17.86-2.15L17.86-2.15Q18.48-2.15 18.88-2.41Q19.29-2.68 19.46-3.01L19.46-3.01L19.46-4.70L18.51-4.70Q16.79-4.70 16.79-3.15L16.79-3.15Q16.79-2.71 17.09-2.43Q17.39-2.15 17.86-2.15ZM24.52-10.57L27.61-10.57L27.71-9.33Q28.81-10.76 30.73-10.76L30.73-10.76Q32.38-10.76 33.20-9.78Q34.01-8.79 34.04-6.81L34.04-6.81L34.04 0L30.74 0L30.74-6.67Q30.74-7.47 30.42-7.85Q30.10-8.22 29.25-8.22L29.25-8.22Q28.28-8.22 27.81-7.46L27.81-7.46L27.81 0L24.52 0L24.52-10.57ZM35.45-5.36L35.45-5.36Q35.45-7.87 36.53-9.32Q37.62-10.76 39.56-10.76L39.56-10.76Q40.98-10.76 41.94-9.65L41.94-9.65L41.94-15L45.24-15L45.24 0L42.29 0L42.12-1.13Q41.10 0.20 39.54 0.20L39.54 0.20Q37.66 0.20 36.55-1.25Q35.45-2.70 35.45-5.36ZM38.75-5.76L38.74-5.16Q38.74-2.34 40.38-2.34L40.38-2.34Q41.47-2.34 41.94-3.26L41.94-3.26L41.94-7.29Q41.49-8.22 40.40-8.22L40.40-8.22Q38.88-8.22 38.75-5.76L38.75-5.76ZM46.71-4.82L46.70-5.38Q46.70-6.96 47.31-8.20Q47.93-9.43 49.08-10.10Q50.23-10.76 51.79-10.76L51.79-10.76Q54.16-10.76 55.53-9.29Q56.89-7.82 56.89-5.29L56.89-5.29L56.89-5.18Q56.89-2.71 55.52-1.25Q54.15 0.20 51.81 0.20L51.81 0.20Q49.55 0.20 48.18-1.16Q46.82-2.51 46.71-4.82L46.71-4.82ZM50-5.77L49.99-5.18Q49.99-3.71 50.45-3.03Q50.91-2.34 51.81-2.34L51.81-2.34Q53.56-2.34 53.60-5.05L53.60-5.05L53.60-5.38Q53.60-8.22 51.79-8.22L51.79-8.22Q50.14-8.22 50-5.77L50-5.77ZM58.37-10.57L61.46-10.57L61.56-9.33Q62.69-10.76 64.58-10.76L64.58-10.76Q66.58-10.76 67.29-9.17L67.29-9.17Q68.36-10.76 70.39-10.76L70.39-10.76Q73.60-10.76 73.69-6.88L73.69-6.88L73.69 0L70.39 0L70.39-6.67Q70.39-7.48 70.12-7.85Q69.84-8.22 69.12-8.22L69.12-8.22Q68.14-8.22 67.67-7.35L67.67-7.35L67.68-7.22L67.68 0L64.38 0L64.38-6.65Q64.38-7.48 64.11-7.85Q63.85-8.22 63.11-8.22L63.11-8.22Q62.16-8.22 61.66-7.35L61.66-7.35L61.66 0L58.37 0L58.37-10.57ZM79.04-15L79.04 0L75.74 0L75.74-15L79.04-15ZM83.62-10.57L85.29-4.61L87.05-10.57L90.58-10.57L86.27 1.77L86.08 2.22Q85.17 4.27 82.84 4.27L82.84 4.27Q82.20 4.27 81.48 4.07L81.48 4.07L81.48 1.72L81.91 1.72Q82.61 1.72 82.97 1.52Q83.34 1.32 83.52 0.80L83.52 0.80L83.78 0.10L80.11-10.57L83.62-10.57Z"></path></g></g></svg><style>@media (prefers-color-scheme: light) { :root { filter: none; } }
@media (prefers-color-scheme: dark) { :root { filter: none; } }
</style></svg>